<svg xmlns="http://www.w3.org/2000/svg" viewBox="0 0 350 104" role="img" aria-label="INWOO"><defs><linearGradient id="sheenL" x1="0" y1="0" x2="0" y2="1"><stop offset="0" stop-color="#FFFFFF" stop-opacity="0"/><stop offset="0.5" stop-color="#2E3A45" stop-opacity="0.05"/><stop offset="1" stop-color="#2E3A45" stop-opacity="0.4"/></linearGradient><clipPath id="mkL"><polygon points="10.00,24.00 30.00,24.00 55.00,104.00 35.00,104.00"/><polygon points="35.00,104.00 55.00,104.00 80.00,24.00 60.00,24.00"/><polygon points="48.00,24.00 68.00,24.00 93.00,104.00 73.00,104.00"/><polygon points="73.00,104.00 93.00,104.00 118.00,24.00 98.00,24.00"/></clipPath></defs><g transform="translate(6 5) scale(0.86)"><polygon points="10.00,24.00 30.00,24.00 55.00,104.00 35.00,104.00" fill="#C9D2D9"/><polygon points="35.00,104.00 55.00,104.00 80.00,24.00 60.00,24.00" fill="#93A0AC"/><polygon points="48.00,24.00 68.00,24.00 93.00,104.00 73.00,104.00" fill="#75828F"/><polygon points="73.00,104.00 93.00,104.00 118.00,24.00 98.00,24.00" fill="#47555F"/><clipPath id="weaveL"><rect x="57" y="20" width="17" height="90"/></clipPath><g clip-path="url(#weaveL)"><polygon points="35.00,104.00 55.00,104.00 80.00,24.00 60.00,24.00" fill="#C9D2D9"/><line x1="35.00" y1="104.00" x2="55.00" y2="104.00" stroke="#F4F6F8" stroke-width="2" stroke-linecap="round" opacity="0.4"/></g><line x1="35.00" y1="104.00" x2="55.00" y2="104.00" stroke="#20272F" stroke-width="1.4" opacity="0.18"/><line x1="73.00" y1="104.00" x2="93.00" y2="104.00" stroke="#20272F" stroke-width="1.4" opacity="0.18"/><line x1="35.00" y1="104.00" x2="55.00" y2="104.00" stroke="#F4F6F8" stroke-width="2" stroke-linecap="round" opacity="0.5"/><line x1="73.00" y1="104.00" x2="93.00" y2="104.00" stroke="#F4F6F8" stroke-width="2" stroke-linecap="round" opacity="0.32"/><g clip-path="url(#mkL)"><rect width="128" height="128" fill="url(#sheenL)" style="mix-blend-mode:multiply"/></g></g><text x="128" y="53" font-family="Segoe UI,-apple-system,Helvetica,Arial,sans-serif" font-size="46" font-weight="600" letter-spacing="2" fill="#3F4B56" dominant-baseline="central">INWOO</text></svg>
